<svg xmlns="http://www.w3.org/2000/svg" width="554.06" height="554.032" viewBox="0 0 554.06 554.032">
  <g id="Group_67" data-name="Group 67" transform="translate(263.224 -6515.001)">
    <circle id="Ellipse_17" data-name="Ellipse 17" cx="277" cy="277" r="277" transform="translate(-263.175 6515.001)" fill="#fff7ec"/>
    <g id="Ring_Chart1" data-name="Ring Chart1" transform="translate(-554.036)">
      <path id="Path_36" data-name="Path 36" d="M0-277c144.554,0,264.8,111.158,276.146,255.267S186.107,250.976,43.332,273.59-235.6,205.225-269.346,64.664-223.077-218.773-85.6-263.443l17,52.308A222,222,0,0,0-215.866,51.825,222,222,0,0,0,34.728,219.267,222,222,0,0,0,221.316-17.418,222,222,0,0,0,0-222Z" transform="translate(567.86 6792.001)" fill="#110d09"/>
      <path id="Path_37" data-name="Path 37" d="M-85.6-263.443A277.007,277.007,0,0,1-51.9-272.094L-41.6-218.068a222,222,0,0,0-27,6.933Z" transform="translate(567.86 6792.001)" fill="#53422d"/>
      <path id="Path_38" data-name="Path 38" d="M-51.9-272.094a276.988,276.988,0,0,1,34.512-4.36l3.453,54.891A222,222,0,0,0-41.6-218.068Z" transform="translate(567.86 6792.001)" fill="#a58459"/>
      <path id="Path_39" data-name="Path 39" d="M-17.393-276.453Q-8.707-277,0-277v55q-6.975,0-13.94.438Z" transform="translate(567.86 6792.001)" fill="#ffc477"/>
    </g>
    <text id="Royals" transform="translate(13.865 6773.777)" fill="#372c1e" font-size="90" font-family="JosefinSans-Light, Josefin Sans" font-weight="300"><tspan x="-123" y="0">Royals</tspan></text>
    <text id="Distribution" transform="translate(13.865 6865.265)" fill="#372c1e" font-size="50" font-family="JosefinSans-Light, Josefin Sans" font-weight="300"><tspan x="-121" y="0">Distribution</tspan></text>
  </g>
</svg>
