<svg xmlns="http://www.w3.org/2000/svg" xmlns:xlink="http://www.w3.org/1999/xlink" width="74" height="74" viewBox="0 0 74 74">
  <defs>
    <linearGradient id="linear-gradient" x1="0.5" x2="0.5" y2="1" gradientUnits="objectBoundingBox">
      <stop offset="0" stop-color="#ffc477"/>
      <stop offset="1" stop-color="#110d09"/>
    </linearGradient>
    <filter id="Rectangle_24" x="0" y="0" width="74" height="74" filterUnits="userSpaceOnUse">
      <feOffset dy="6" input="SourceAlpha"/>
      <feGaussianBlur stdDeviation="3.5" result="blur"/>
      <feFlood flood-opacity="0.502"/>
      <feComposite operator="in" in2="blur"/>
      <feComposite in="SourceGraphic"/>
    </filter>
    <linearGradient id="linear-gradient-2" x1="0.5" x2="0.5" y2="1" gradientUnits="objectBoundingBox">
      <stop offset="0" stop-color="#ffc477"/>
      <stop offset="1" stop-color="#ffc477"/>
    </linearGradient>
    <filter id="Icon_awesome-twitter" x="8.951" y="12.158" width="56.099" height="49.507" filterUnits="userSpaceOnUse">
      <feOffset dy="6" input="SourceAlpha"/>
      <feGaussianBlur stdDeviation="3.5" result="blur-2"/>
      <feFlood flood-opacity="0.502"/>
      <feComposite operator="in" in2="blur-2"/>
      <feComposite in="SourceGraphic"/>
    </filter>
  </defs>
  <g id="Group_98" data-name="Group 98" transform="translate(-125.5 -974.5)">
    <g transform="matrix(1, 0, 0, 1, 125.5, 974.5)" filter="url(#Rectangle_24)">
      <rect id="Rectangle_24-2" data-name="Rectangle 24" width="53" height="53" rx="10" transform="translate(10.5 4.5)" fill="url(#linear-gradient)"/>
    </g>
    <g transform="matrix(1, 0, 0, 1, 125.5, 974.5)" filter="url(#Icon_awesome-twitter)">
      <path id="Icon_awesome-twitter-2" data-name="Icon awesome-twitter" d="M31.491,10.485c.022.312.022.624.022.935,0,9.51-7.238,20.467-20.467,20.467A20.328,20.328,0,0,1,0,28.658a14.881,14.881,0,0,0,1.737.089,14.406,14.406,0,0,0,8.931-3.073,7.206,7.206,0,0,1-6.726-4.989A9.072,9.072,0,0,0,5.3,20.8a7.608,7.608,0,0,0,1.893-.245,7.194,7.194,0,0,1-5.768-7.06V13.4a7.245,7.245,0,0,0,3.252.913A7.2,7.2,0,0,1,2.45,4.695a20.447,20.447,0,0,0,14.832,7.528,8.121,8.121,0,0,1-.178-1.648A7.2,7.2,0,0,1,29.553,5.652a14.163,14.163,0,0,0,4.566-1.737,7.174,7.174,0,0,1-3.162,3.964A14.421,14.421,0,0,0,35.1,6.766a15.463,15.463,0,0,1-3.608,3.719Z" transform="translate(19.45 13.28)" fill="url(#linear-gradient-2)"/>
    </g>
  </g>
</svg>
