<svg xmlns="http://www.w3.org/2000/svg" xmlns:xlink="http://www.w3.org/1999/xlink" width="74" height="74" viewBox="0 0 74 74">
  <defs>
    <linearGradient id="linear-gradient" x1="0.5" x2="0.5" y2="1" gradientUnits="objectBoundingBox">
      <stop offset="0" stop-color="#ffc477"/>
      <stop offset="1"/>
    </linearGradient>
    <filter id="Rectangle_24" x="0" y="0" width="74" height="74" filterUnits="userSpaceOnUse">
      <feOffset dy="6" input="SourceAlpha"/>
      <feGaussianBlur stdDeviation="3.5" result="blur"/>
      <feFlood flood-opacity="0.502"/>
      <feComposite operator="in" in2="blur"/>
      <feComposite in="SourceGraphic"/>
    </filter>
  </defs>
  <g id="Group_19" data-name="Group 19" transform="translate(-191.5 -974.5)">
    <g transform="matrix(1, 0, 0, 1, 191.5, 974.5)" filter="url(#Rectangle_24)">
      <rect id="Rectangle_24-2" data-name="Rectangle 24" width="53" height="53" rx="10" transform="translate(10.5 4.5)" fill="url(#linear-gradient)"/>
    </g>
    <g id="opensea" transform="translate(217 994.479)">
      <path id="Subtraction_7" data-name="Subtraction 7" d="M11.5,23A11.5,11.5,0,0,1,7.024.9,11.5,11.5,0,0,1,15.976,22.1,11.427,11.427,0,0,1,11.5,23ZM4.933,13.33a.1.1,0,0,0-.1.1V13.5A3.857,3.857,0,0,0,8.676,17.36H14.67c1.124,0,1.767-1.032,2.389-2.03.172-.275.349-.56.532-.815a3.672,3.672,0,0,1,1.354-.922.106.106,0,0,0,.064-.1v-.741a.1.1,0,0,0-.1-.1.1.1,0,0,0-.028,0l-3.5,1.011a.1.1,0,0,0-.049.03,9.469,9.469,0,0,1-.778.766l-.005,0a1.178,1.178,0,0,1-.77.285H12.51V13.461h1.007a.106.106,0,0,0,.07-.026l.13-.119c.055-.05.122-.112.2-.191l.024-.024c.041-.041.083-.083.126-.131s.093-.1.15-.163c.077-.082.148-.166.234-.267a2.194,2.194,0,0,0,.159-.2c.058-.067.115-.145.164-.212.02-.029.041-.059.062-.088l.06-.085c.042-.064.079-.122.107-.174a3.286,3.286,0,0,0,.254-.482c.032-.07.058-.144.083-.215l.01-.028a2.134,2.134,0,0,0,.07-.247,1.925,1.925,0,0,0,.033-.59,1.1,1.1,0,0,0-.024-.178v-.009A.714.714,0,0,0,15.4,9.9a3.01,3.01,0,0,0-.193-.571c-.024-.06-.055-.127-.093-.206-.063-.117-.148-.271-.244-.417-.018-.029-.039-.058-.057-.085v0l-.045-.067c-.057-.088-.122-.174-.185-.257l-.04-.053c-.038-.05-.079-.1-.119-.148l0,0-.061-.073c-.063-.076-.122-.146-.183-.215-.185-.208-.393-.419-.656-.664-.036-.036-.077-.074-.122-.112-.165-.151-.309-.275-.426-.37-.036-.028-.068-.055-.1-.081l-.06-.05-.095-.072,0,0-.044-.033a.108.108,0,0,0-.031-.015l-.135-.038V5.257a.66.66,0,0,0-.19-.464.639.639,0,0,0-.46-.193.654.654,0,0,0-.65.657v.751l-.067-.019-.183-.052-.167-.046h-.008L9.521,5.547l-.018,0a.066.066,0,0,0-.057.1l.2.373c.011.029.026.057.041.087s.019.038.029.059c.031.062.064.131.1.206.024.053.054.117.09.188l.04.088v0c.054.119.109.243.165.377l0,.008c.045.108.092.219.132.333.119.31.225.623.314.931.023.072.042.141.061.213h0l.024.089.013.057c.043.172.073.315.095.449.018.1.036.2.046.3v.007c.014.108.028.22.032.329s.014.21.014.313a3.3,3.3,0,0,1-.079.754l-.011.041v0c-.015.057-.031.115-.05.172s-.04.123-.063.188h0l-.025.069-.007.018c-.017.045-.034.091-.055.136a7.338,7.338,0,0,1-.412.823c-.27.478-.507.824-.6.95l-.024.036,0,0L9.49,13.3a.1.1,0,0,0-.007.109.1.1,0,0,0,.092.057H11.21v1.291H9.556A1.176,1.176,0,0,1,8.5,14.1a1.138,1.138,0,0,1-.119-.641.12.12,0,0,0-.031-.091.105.105,0,0,0-.078-.035ZM8.8,7.081a.1.1,0,0,0-.086.047l-2.992,4.68-.049.078a.1.1,0,0,0,0,.1.1.1,0,0,0,.091.054H8.838A.1.1,0,0,0,8.923,12c.042-.064.079-.128.112-.19a5.175,5.175,0,0,0,.589-1.287,6.681,6.681,0,0,0-.729-3.38A.1.1,0,0,0,8.8,7.081Z" transform="translate(0 -0.479)" fill="#ffc477"/>
    </g>
  </g>
</svg>
