<svg xmlns="http://www.w3.org/2000/svg" xmlns:xlink="http://www.w3.org/1999/xlink" width="74" height="74" viewBox="0 0 74 74">
  <defs>
    <linearGradient id="linear-gradient" x1="0.5" x2="0.5" y2="1" gradientUnits="objectBoundingBox">
      <stop offset="0" stop-color="#ffc477"/>
      <stop offset="1" stop-color="#110d09"/>
    </linearGradient>
    <filter id="Rectangle_24" x="0" y="0" width="74" height="74" filterUnits="userSpaceOnUse">
      <feOffset dy="6" input="SourceAlpha"/>
      <feGaussianBlur stdDeviation="3.5" result="blur"/>
      <feFlood flood-opacity="0.502"/>
      <feComposite operator="in" in2="blur"/>
      <feComposite in="SourceGraphic"/>
    </filter>
    <linearGradient id="linear-gradient-2" x1="0.5" x2="0.5" y2="1" gradientUnits="objectBoundingBox">
      <stop offset="0" stop-color="#ffc477"/>
      <stop offset="1" stop-color="#ffc477"/>
    </linearGradient>
    <filter id="Subtraction_7" x="13" y="13" width="49" height="49" filterUnits="userSpaceOnUse">
      <feOffset dy="6" input="SourceAlpha"/>
      <feGaussianBlur stdDeviation="3.5" result="blur-2"/>
      <feFlood flood-opacity="0.502"/>
      <feComposite operator="in" in2="blur-2"/>
      <feComposite in="SourceGraphic"/>
    </filter>
  </defs>
  <g id="Group_100" data-name="Group 100" transform="translate(-191.5 -974.5)">
    <g transform="matrix(1, 0, 0, 1, 191.5, 974.5)" filter="url(#Rectangle_24)">
      <rect id="Rectangle_24-2" data-name="Rectangle 24" width="53" height="53" rx="10" transform="translate(10.5 4.5)" fill="url(#linear-gradient)"/>
    </g>
    <g id="opensea" transform="translate(214.548 992.027)">
      <g transform="matrix(1, 0, 0, 1, -23.05, -17.53)" filter="url(#Subtraction_7)">
        <path id="Subtraction_7-2" data-name="Subtraction 7" d="M14,28A14,14,0,0,1,8.551,1.1a14,14,0,0,1,10.9,25.8A13.911,13.911,0,0,1,14,28ZM6.005,16.228a.125.125,0,0,0-.125.125v.083a4.7,4.7,0,0,0,4.682,4.7h7.3c1.368,0,2.151-1.256,2.908-2.471.209-.335.425-.682.648-.992a4.471,4.471,0,0,1,1.648-1.122.129.129,0,0,0,.078-.118v-.9a.126.126,0,0,0-.125-.126.124.124,0,0,0-.035.005l-4.259,1.231a.121.121,0,0,0-.059.036,11.528,11.528,0,0,1-.947.933l-.006.005a1.434,1.434,0,0,1-.938.346H15.229V16.388h1.225a.129.129,0,0,0,.085-.032l.158-.145c.067-.061.148-.137.244-.233l.029-.029c.05-.05.1-.1.153-.159s.113-.117.183-.2c.093-.1.18-.2.285-.325a2.672,2.672,0,0,0,.194-.244c.07-.082.141-.176.2-.258.024-.035.05-.072.075-.107s.048-.067.073-.1c.052-.078.1-.149.131-.211a4,4,0,0,0,.309-.587c.039-.085.071-.175.1-.262l.012-.034a2.6,2.6,0,0,0,.085-.3,2.344,2.344,0,0,0,.04-.718,1.343,1.343,0,0,0-.029-.217v-.011a.869.869,0,0,0-.033-.154,3.665,3.665,0,0,0-.234-.695c-.03-.073-.067-.155-.114-.25-.077-.143-.18-.329-.3-.508-.022-.035-.047-.071-.069-.1l0,0-.055-.081c-.07-.108-.149-.212-.225-.313l-.048-.064c-.046-.06-.1-.121-.145-.18l0,0-.074-.089c-.076-.092-.149-.178-.223-.262-.225-.254-.478-.51-.8-.808-.044-.044-.094-.09-.148-.137-.2-.183-.376-.335-.519-.45-.044-.034-.083-.067-.121-.1L15.6,7.952l-.115-.087,0,0-.053-.04a.131.131,0,0,0-.037-.019l-.164-.046V6.4A.8.8,0,0,0,15,5.834a.777.777,0,0,0-.559-.234.8.8,0,0,0-.791.8v.915l-.082-.023-.223-.063-.2-.056h-.01L11.59,6.753a.08.08,0,0,0-.09.117l.246.454c.014.035.031.069.05.106s.024.047.035.072c.038.076.078.16.119.25.03.065.066.142.109.229l.048.107v0c.065.145.133.3.2.459l0,.01c.055.131.112.267.161.405.145.377.274.758.383,1.133.028.088.051.172.074.26h0l.029.108.016.069c.053.209.089.383.115.547.022.119.044.242.056.365v.009c.016.131.034.267.039.4s.017.256.017.381a4.019,4.019,0,0,1-.1.918l-.014.05v0c-.019.069-.038.141-.061.209s-.048.15-.077.229h0l-.03.083-.008.022c-.02.054-.041.11-.067.165a8.933,8.933,0,0,1-.5,1c-.329.582-.617,1-.725,1.156l-.029.043,0,0-.04.06a.127.127,0,0,0-.008.133.125.125,0,0,0,.112.069h1.991V17.96H11.633a1.431,1.431,0,0,1-1.283-.8,1.385,1.385,0,0,1-.145-.781.146.146,0,0,0-.037-.111.128.128,0,0,0-.1-.043ZM10.714,8.62a.124.124,0,0,0-.105.058l-3.642,5.7-.06.1A.121.121,0,0,0,6.9,14.6a.125.125,0,0,0,.111.066h3.745a.124.124,0,0,0,.1-.055c.051-.077.1-.155.137-.232a6.3,6.3,0,0,0,.716-1.566c.294-1.26-.523-3.3-.888-4.115A.123.123,0,0,0,10.714,8.62Z" transform="translate(23.5 17.5)" fill="url(#linear-gradient-2)"/>
      </g>
    </g>
  </g>
</svg>
