<svg xmlns="http://www.w3.org/2000/svg" xmlns:xlink="http://www.w3.org/1999/xlink" width="379.002" height="129.754" viewBox="0 0 379.002 129.754">
  <defs>
    <filter id="blob_2_" x="0" y="0" width="379.002" height="129.754" filterUnits="userSpaceOnUse">
      <feOffset input="SourceAlpha"/>
      <feGaussianBlur stdDeviation="5" result="blur"/>
      <feFlood flood-opacity="0.251"/>
      <feComposite operator="in" in2="blur"/>
      <feComposite in="SourceGraphic"/>
    </filter>
  </defs>
  <g transform="matrix(1, 0, 0, 1, 0, 0)" filter="url(#blob_2_)">
    <path id="blob_2_2" data-name="blob (2)" d="M64,309.276c1.9-28.844-8.6-73.691-7.7-98.387C57.2,186,69.5,181.65,70,176.513c.5-4.939-10.9-10.668-12.1-33.981-1.3-23.51,7.5-64.8,5-92.855C60.5,21.425,46.8,6.213,31.7,1.472S.2,2.459,0,33.279C-.3,63.9,15.8,119.812,19.8,147.866c4,28.252-4,28.647-5.5,31.017-1.5,2.173,3.4,6.124,3,21.732-.3,15.608-5.8,42.476-4.1,71.518C15,301.176,24,332,35.8,341.281,47.6,350.369,62,337.922,64,309.276Z" transform="matrix(0.09, 1, -1, 0.09, 357.9, 15)" fill="#53422d"/>
  </g>
</svg>
